<?xml version="1.0" encoding="UTF-8" standalone="no" ?>
<!DOCTYPE svg PUBLIC "-//W3C//DTD SVG 1.1//EN" "http://www.w3.org/Graphics/SVG/1.1/DTD/svg11.dtd">
<svg xmlns="http://www.w3.org/2000/svg" xmlns:xlink="http://www.w3.org/1999/xlink" version="1.1" width="600" height="600" viewBox="0 0 1200 1200" xml:space="preserve">
<desc>Created with Fabric.js 4.6.0</desc>
<defs>
</defs>
<g transform="matrix(1.13 0 0 1.13 551.31 487.12)" id="Ids-AL1zwqG9ALhR06fs3"  >
<g style="" vector-effect="non-scaling-stroke"   >
		<g transform="matrix(0.13 0 0 -0.13 -76.67 -291.08)" id="akpFhTUPtOSD0ll0likiW"  >
<path style="stroke: none; stroke-width: 1; stroke-dasharray: none; stroke-linecap: butt; stroke-dashoffset: 0; stroke-linejoin: miter; stroke-miterlimit: 4; fill: rgb(0,0,0); fill-rule: nonzero; opacity: 1;" vector-effect="non-scaling-stroke"  transform=" translate(-5425, -8183.12)" d="M 5395 8397 C 5390 8381 5320 7992 5320 7979 C 5320 7973 5332 7970 5348 7972 C 5372 7975 5376 7980 5384 8028 L 5393 8081 L 5429 8078 C 5465 8075 5465 8075 5470 8020 C 5475 7969 5477 7965 5503 7962 C 5518 7960 5530 7962 5530 7967 C 5530 7988 5480 8393 5478 8395 C 5476 8396 5458 8400 5437 8403 C 5412 8407 5398 8405 5395 8397 z M 5453 8198 L 5459 8130 L 5429 8130 C 5402 8130 5399 8133 5403 8153 C 5406 8165 5414 8211 5421 8255 C 5433 8327 5435 8332 5441 8300 C 5445 8281 5450 8235 5453 8198 z" stroke-linecap="round" />
</g>
		<g transform="matrix(0.13 0 0 -0.13 -129.3 -288.88)" id="3W9LW6x0LzSmZze8QfcBk"  >
<path style="stroke: none; stroke-width: 1; stroke-dasharray: none; stroke-linecap: butt; stroke-dashoffset: 0; stroke-linejoin: miter; stroke-miterlimit: 4; fill: rgb(0,0,0); fill-rule: nonzero; opacity: 1;" vector-effect="non-scaling-stroke"  transform=" translate(-5030.23, -8166.63)" d="M 5067 8393 C 5063 8390 5059 8353 5059 8311 C 5058 8269 5055 8201 5051 8160 L 5045 8085 L 4997 8227 C 4970 8306 4944 8372 4939 8376 C 4934 8379 4916 8379 4900 8375 C 4876 8370 4871 8364 4875 8347 C 4878 8335 4891 8238 4904 8132 C 4917 8025 4930 7937 4932 7935 C 4934 7932 4946 7933 4958 7937 C 4977 7941 4980 7948 4976 7969 C 4965 8025 4948 8212 4953 8217 C 4956 8220 4978 8161 5001 8086 C 5064 7884 5090 7907 5090 8165 C 5090 8298 5112 8228 5136 8018 C 5141 7970 5146 7960 5161 7960 C 5172 7960 5183 7967 5186 7974 C 5189 7982 5182 8058 5170 8142 C 5143 8324 5143 8326 5141 8368 C 5140 8397 5137 8400 5107 8400 C 5088 8400 5070 8397 5067 8393 z" stroke-linecap="round" />
</g>
		<g transform="matrix(0.13 0 0 -0.13 -26.76 -285.33)" id="1zDmf11-ZezdIr4NbjkFg"  >
<path style="stroke: none; stroke-width: 1; stroke-dasharray: none; stroke-linecap: butt; stroke-dashoffset: 0; stroke-linejoin: miter; stroke-miterlimit: 4; fill: rgb(0,0,0); fill-rule: nonzero; opacity: 1;" vector-effect="non-scaling-stroke"  transform=" translate(-5799.28, -8140)" d="M 5706 8165 C 5685 8052 5670 7953 5674 7945 C 5680 7929 5706 7925 5714 7939 C 5717 7944 5727 7981 5735 8021 C 5757 8127 5761 8143 5765 8139 C 5767 8136 5774 8094 5781 8045 C 5796 7927 5803 7910 5835 7910 C 5855 7910 5860 7914 5856 7928 C 5854 7937 5844 7990 5835 8045 L 5818 8145 L 5848 8195 C 5865 8223 5891 8265 5905 8289 C 5927 8324 5930 8334 5919 8341 C 5888 8360 5873 8347 5825 8260 C 5797 8211 5772 8170 5769 8170 C 5766 8170 5771 8212 5781 8263 C 5790 8313 5796 8358 5793 8363 C 5791 8367 5779 8370 5766 8370 C 5745 8370 5742 8360 5706 8165 z" stroke-linecap="round" />
</g>
		<g transform="matrix(0.13 0 0 -0.13 18.32 -273.43)" id="dpCtL9XVe7BdlFDE8nIft"  >
<path style="stroke: none; stroke-width: 1; stroke-dasharray: none; stroke-linecap: butt; stroke-dashoffset: 0; stroke-linejoin: miter; stroke-miterlimit: 4; fill: rgb(0,0,0); fill-rule: nonzero; opacity: 1;" vector-effect="non-scaling-stroke"  transform=" translate(-6137.43, -8050.74)" d="M 6125 8268 C 6046 8031 6000 7876 6007 7870 C 6021 7857 6131 7819 6140 7825 C 6144 7827 6150 7839 6153 7849 C 6157 7865 6149 7872 6114 7886 C 6090 7895 6070 7905 6070 7907 C 6070 7919 6101 8017 6109 8029 C 6117 8041 6123 8042 6146 8031 C 6171 8020 6176 8021 6187 8036 C 6206 8062 6204 8067 6165 8080 C 6139 8089 6131 8096 6134 8108 C 6166 8220 6161 8212 6194 8205 C 6251 8192 6265 8194 6268 8216 C 6271 8234 6263 8240 6223 8253 C 6132 8282 6130 8282 6125 8268 z" stroke-linecap="round" />
</g>
		<g transform="matrix(0.13 0 0 -0.13 -215.04 -269.6)" id="DeMVjTtz_KK3RdJBYCSch"  >
<path style="stroke: none; stroke-width: 1; stroke-dasharray: none; stroke-linecap: butt; stroke-dashoffset: 0; stroke-linejoin: miter; stroke-miterlimit: 4; fill: rgb(0,0,0); fill-rule: nonzero; opacity: 1;" vector-effect="non-scaling-stroke"  transform=" translate(-4387.23, -8022.01)" d="M 4402 8239 C 4377 8230 4378 8218 4405 8082 C 4420 8009 4420 8009 4351 8113 C 4309 8176 4294 8191 4277 8188 C 4265 8186 4255 8178 4256 8170 C 4257 8161 4292 8106 4335 8046 C 4378 7987 4425 7909 4440 7874 C 4472 7797 4473 7796 4499 7805 C 4526 7813 4525 7825 4496 7891 C 4481 7927 4467 7992 4455 8085 C 4445 8162 4435 8230 4431 8236 C 4427 8244 4417 8245 4402 8239 z" stroke-linecap="round" />
</g>
		<g transform="matrix(0.13 0 0 -0.13 -250.67 -249.4)" id="6RU814Q_tECu3wUgUXd9p"  >
<path style="stroke: none; stroke-width: 1; stroke-dasharray: none; stroke-linecap: butt; stroke-dashoffset: 0; stroke-linejoin: miter; stroke-miterlimit: 4; fill: rgb(0,0,0); fill-rule: nonzero; opacity: 1;" vector-effect="non-scaling-stroke"  transform=" translate(-4120, -7870.48)" d="M 4013 8062 C 3978 8042 3950 8023 3950 8020 C 3950 8016 3976 7969 4009 7914 C 4041 7860 4089 7778 4115 7733 C 4141 7687 4165 7650 4167 7650 C 4181 7650 4290 7717 4290 7725 C 4290 7731 4285 7742 4280 7750 C 4272 7763 4265 7762 4231 7744 C 4185 7719 4179 7722 4141 7795 C 4114 7846 4115 7854 4145 7868 C 4172 7880 4177 7899 4159 7917 C 4150 7926 4140 7925 4117 7914 C 4084 7896 4083 7897 4047 7960 L 4021 8005 L 4060 8028 C 4104 8053 4106 8058 4088 8082 C 4076 8097 4069 8095 4013 8062 z" stroke-linecap="round" />
</g>
		<g transform="matrix(0.13 0 0 -0.13 85.29 -241.71)" id="f2Y7yzXPj_0RDk3Oqu1R8"  >
<path style="stroke: none; stroke-width: 1; stroke-dasharray: none; stroke-linecap: butt; stroke-dashoffset: 0; stroke-linejoin: miter; stroke-miterlimit: 4; fill: rgb(0,0,0); fill-rule: nonzero; opacity: 1;" vector-effect="non-scaling-stroke"  transform=" translate(-6639.66, -7812.84)" d="M 6660 7993 C 6621 7958 6609 7907 6615 7810 C 6621 7719 6606 7667 6572 7662 C 6544 7658 6533 7683 6547 7720 C 6555 7742 6554 7749 6539 7758 C 6512 7775 6505 7773 6492 7745 C 6455 7663 6526 7579 6600 7616 C 6655 7644 6664 7671 6670 7814 C 6674 7922 6678 7945 6693 7954 C 6705 7962 6715 7962 6728 7954 C 6745 7942 6747 7928 6736 7900 C 6732 7891 6738 7880 6751 7872 C 6769 7861 6774 7861 6786 7877 C 6794 7887 6799 7912 6797 7935 C 6795 7967 6789 7978 6761 7997 C 6717 8027 6697 8026 6660 7993 z" stroke-linecap="round" />
</g>
		<g transform="matrix(0.13 0 0 -0.13 -290.88 -223.27)" id="C6oqpJ8NFDko7nPL2AQy0"  >
<path style="stroke: none; stroke-width: 1; stroke-dasharray: none; stroke-linecap: butt; stroke-dashoffset: 0; stroke-linejoin: miter; stroke-miterlimit: 4; fill: rgb(0,0,0); fill-rule: nonzero; opacity: 1;" vector-effect="non-scaling-stroke"  transform=" translate(-3818.39, -7674.51)" d="M 3743 7893 C 3720 7884 3729 7865 3809 7765 C 3852 7710 3886 7663 3884 7661 C 3882 7659 3833 7697 3775 7744 C 3670 7831 3664 7833 3627 7802 C 3611 7788 3612 7785 3637 7751 C 3738 7616 3874 7450 3884 7450 C 3891 7450 3901 7455 3907 7461 C 3915 7469 3892 7506 3820 7599 C 3766 7668 3724 7727 3725 7729 C 3727 7730 3766 7701 3812 7663 C 3932 7564 3977 7530 3987 7530 C 3993 7530 4004 7538 4013 7548 C 4028 7565 4025 7572 3959 7655 C 3920 7705 3861 7780 3829 7823 C 3796 7865 3766 7900 3762 7899 C 3758 7899 3749 7896 3743 7893 z" stroke-linecap="round" />
</g>
		<g transform="matrix(0.13 0 0 -0.13 122.2 -215.66)" id="v2Fx-owbi2BOSyCATTpYK"  >
<path style="stroke: none; stroke-width: 1; stroke-dasharray: none; stroke-linecap: butt; stroke-dashoffset: 0; stroke-linejoin: miter; stroke-miterlimit: 4; fill: rgb(0,0,0); fill-rule: nonzero; opacity: 1;" vector-effect="non-scaling-stroke"  transform=" translate(-6916.47, -7617.44)" d="M 6980 7822 C 6980 7814 6841 7637 6760 7540 C 6744 7521 6730 7500 6730 7494 C 6730 7488 6755 7463 6785 7440 C 6837 7400 6840 7399 6857 7415 C 6873 7432 6872 7434 6837 7465 L 6799 7498 L 6839 7548 C 6861 7576 6883 7601 6888 7604 C 6893 7607 6910 7600 6925 7588 C 6952 7567 6953 7567 6966 7585 C 6978 7602 6977 7607 6954 7631 L 6928 7658 L 6961 7704 C 6980 7729 6999 7749 7004 7750 C 7008 7750 7025 7739 7042 7725 C 7078 7695 7086 7694 7100 7719 C 7108 7736 7102 7745 7052 7784 C 6995 7830 6980 7838 6980 7822 z" stroke-linecap="round" />
</g>
		<g transform="matrix(0.13 0 0 -0.13 -326.44 -191.48)" id="jJKoDmUmDIKBpdWpXYVcB"  >
<path style="stroke: none; stroke-width: 1; stroke-dasharray: none; stroke-linecap: butt; stroke-dashoffset: 0; stroke-linejoin: miter; stroke-miterlimit: 4; fill: rgb(0,0,0); fill-rule: nonzero; opacity: 1;" vector-effect="non-scaling-stroke"  transform=" translate(-3551.72, -7436.11)" d="M 3416 7605 C 3408 7597 3397 7590 3392 7590 C 3376 7590 3358 7535 3365 7507 C 3373 7478 3593 7267 3628 7256 C 3678 7240 3740 7292 3740 7351 C 3740 7364 3709 7404 3658 7457 C 3511 7608 3454 7643 3416 7605 z M 3577 7458 C 3684 7352 3702 7319 3652 7312 C 3636 7309 3613 7325 3567 7372 C 3532 7407 3484 7452 3462 7473 C 3423 7508 3410 7537 3427 7553 C 3447 7574 3481 7552 3577 7458 z" stroke-linecap="round" />
</g>
		<g transform="matrix(0.13 0 0 -0.13 155.12 -184.07)" id="hu9ePyonzbUx_Wa0vYktx"  >
<path style="stroke: none; stroke-width: 1; stroke-dasharray: none; stroke-linecap: butt; stroke-dashoffset: 0; stroke-linejoin: miter; stroke-miterlimit: 4; fill: rgb(0,0,0); fill-rule: nonzero; opacity: 1;" vector-effect="non-scaling-stroke"  transform=" translate(-7163.38, -7380.52)" d="M 7112 7461 C 6929 7289 6936 7297 6958 7277 C 6974 7262 6983 7269 7093 7372 C 7157 7432 7210 7479 7210 7475 C 7210 7471 7172 7410 7125 7341 C 7078 7271 7040 7209 7040 7203 C 7040 7198 7048 7186 7058 7177 C 7075 7161 7085 7169 7233 7306 C 7373 7437 7388 7454 7377 7471 C 7371 7481 7363 7490 7360 7490 C 7357 7490 7311 7450 7258 7400 C 7205 7351 7159 7310 7156 7310 C 7154 7310 7187 7362 7231 7426 L 7311 7543 L 7289 7566 C 7276 7579 7263 7590 7258 7590 C 7253 7590 7187 7532 7112 7461 z" stroke-linecap="round" />
</g>
		<g transform="matrix(0.13 0 0 -0.13 -361.08 -150.6)" id="H0gsW1TGurmsrl9V_ByX0"  >
<path style="stroke: none; stroke-width: 1; stroke-dasharray: none; stroke-linecap: butt; stroke-dashoffset: 0; stroke-linejoin: miter; stroke-miterlimit: 4; fill: rgb(0,0,0); fill-rule: nonzero; opacity: 1;" vector-effect="non-scaling-stroke"  transform=" translate(-3291.92, -7129.5)" d="M 3168 7328 L 3146 7296 L 3253 7195 C 3312 7139 3360 7091 3360 7087 C 3360 7084 3299 7108 3224 7141 C 3150 7173 3086 7200 3082 7200 C 3078 7200 3066 7187 3057 7170 L 3039 7141 L 3132 7079 C 3183 7045 3261 6991 3306 6958 C 3350 6926 3392 6900 3398 6900 C 3404 6900 3414 6908 3419 6919 C 3428 6935 3415 6947 3324 7011 C 3266 7052 3211 7091 3202 7098 C 3179 7115 3264 7082 3374 7031 C 3459 6992 3480 6988 3480 7013 C 3480 7019 3432 7074 3373 7134 C 3288 7219 3275 7236 3310 7213 C 3335 7197 3382 7166 3415 7144 C 3448 7123 3484 7097 3494 7088 C 3505 7078 3516 7070 3519 7070 C 3531 7070 3551 7113 3543 7120 C 3539 7124 3458 7179 3363 7243 L 3191 7359 L 3168 7328 z" stroke-linecap="round" />
</g>
		<g transform="matrix(0.13 0 0 -0.13 185.36 -146.96)" id="wPiZZCuR-xQ2q287k535l"  >
<path style="stroke: none; stroke-width: 1; stroke-dasharray: none; stroke-linecap: butt; stroke-dashoffset: 0; stroke-linejoin: miter; stroke-miterlimit: 4; fill: rgb(0,0,0); fill-rule: nonzero; opacity: 1;" vector-effect="non-scaling-stroke"  transform=" translate(-7390.19, -7102.19)" d="M 7467 7255 C 7426 7234 7405 7205 7369 7120 C 7325 7020 7304 6990 7275 6990 C 7240 6990 7231 7028 7260 7052 C 7281 7069 7282 7073 7270 7095 C 7260 7114 7253 7117 7239 7109 C 7189 7083 7175 7012 7211 6966 C 7239 6930 7296 6930 7338 6965 C 7368 6990 7381 7013 7435 7138 C 7464 7204 7495 7225 7525 7200 C 7545 7183 7544 7174 7519 7151 C 7501 7135 7500 7129 7512 7111 C 7528 7084 7532 7085 7564 7116 C 7597 7149 7598 7195 7567 7232 C 7539 7266 7503 7275 7467 7255 z" stroke-linecap="round" />
</g>
		<g transform="matrix(0.13 0 0 -0.13 208.06 -106.48)" id="swbWB5BnSaxoyhmVjqJeJ"  >
<path style="stroke: none; stroke-width: 1; stroke-dasharray: none; stroke-linecap: butt; stroke-dashoffset: 0; stroke-linejoin: miter; stroke-miterlimit: 4; fill: rgb(0,0,0); fill-rule: nonzero; opacity: 1;" vector-effect="non-scaling-stroke"  transform=" translate(-7560.45, -6798.6)" d="M 7638 6927 C 7607 6910 7528 6868 7461 6835 C 7395 6802 7340 6769 7340 6763 C 7340 6742 7394 6640 7405 6640 C 7410 6640 7421 6644 7429 6649 C 7442 6657 7441 6664 7425 6699 C 7415 6722 7409 6743 7412 6746 C 7415 6749 7444 6764 7476 6780 L 7535 6809 L 7550 6779 C 7560 6758 7570 6750 7585 6752 C 7605 6755 7609 6773 7595 6815 C 7590 6831 7598 6840 7639 6863 C 7666 6878 7691 6890 7694 6890 C 7697 6890 7709 6872 7720 6849 C 7735 6821 7746 6810 7756 6814 C 7765 6817 7774 6820 7776 6820 C 7799 6820 7735 6953 7710 6957 C 7702 6959 7670 6945 7638 6927 z" stroke-linecap="round" />
</g>
		<g transform="matrix(0.13 0 0 -0.13 -400.72 -74.08)" id="g_ls2pNCQElKSUwvf2jBS"  >
<path style="stroke: none; stroke-width: 1; stroke-dasharray: none; stroke-linecap: butt; stroke-dashoffset: 0; stroke-linejoin: miter; stroke-miterlimit: 4; fill: rgb(0,0,0); fill-rule: nonzero; opacity: 1;" vector-effect="non-scaling-stroke"  transform=" translate(-2994.63, -6555.61)" d="M 2805 6665 C 2771 6632 2771 6572 2804 6541 C 2836 6511 3082 6420 3131 6420 C 3160 6420 3173 6426 3189 6446 C 3216 6480 3217 6543 3191 6569 C 3169 6591 2999 6654 2990 6643 C 2986 6639 2978 6620 2972 6602 C 2962 6572 2963 6568 2983 6560 C 2998 6554 3008 6556 3016 6566 C 3026 6579 3037 6577 3091 6557 C 3144 6537 3155 6529 3155 6510 C 3155 6463 3132 6465 2980 6522 C 2856 6569 2835 6580 2832 6600 C 2827 6628 2846 6640 2881 6633 C 2903 6629 2909 6632 2915 6650 C 2929 6696 2846 6707 2805 6665 z" stroke-linecap="round" />
</g>
		<g transform="matrix(0.13 0 0 -0.13 -83.33 72.43)" id="LyyqmEw6ylSvgoR00rfuY"  >
<path style="stroke: none; stroke-width: 1; stroke-dasharray: none; stroke-linecap: butt; stroke-dashoffset: 0; stroke-linejoin: miter; stroke-miterlimit: 4; fill: rgb(0,0,0); fill-rule: nonzero; opacity: 1;" vector-effect="non-scaling-stroke"  transform=" translate(-5375, -5456.77)" d="M 5280 6354 C 5078 6311 4918 6158 4879 5972 C 4872 5938 4870 5879 4873 5825 C 4878 5750 4884 5725 4915 5664 C 4981 5530 5069 5472 5351 5379 C 5559 5310 5596 5294 5655 5239 C 5715 5184 5734 5130 5728 5038 C 5720 4912 5661 4827 5545 4773 C 5489 4747 5477 4745 5360 4745 C 5209 4746 5169 4759 5024 4856 C 4901 4938 4885 4935 4820 4815 L 4795 4768 L 4846 4722 C 4914 4659 5008 4605 5105 4573 C 5178 4548 5198 4546 5350 4545 C 5536 4545 5592 4558 5706 4626 C 5781 4671 5822 4710 5871 4785 C 5932 4877 5954 4962 5955 5100 C 5955 5209 5953 5219 5923 5283 C 5859 5417 5755 5487 5471 5584 C 5275 5651 5202 5689 5150 5748 C 5106 5798 5096 5834 5102 5920 C 5114 6084 5288 6192 5494 6162 C 5579 6149 5669 6113 5740 6061 C 5795 6021 5822 6021 5853 6063 C 5889 6110 5922 6179 5914 6191 C 5901 6212 5758 6299 5702 6320 C 5573 6369 5410 6382 5280 6354 z" stroke-linecap="round" />
</g>
		<g transform="matrix(0.13 0 0 -0.13 114.67 73.33)" id="e4B2uXm9La-PDJNBLdcl9"  >
<path style="stroke: none; stroke-width: 1; stroke-dasharray: none; stroke-linecap: butt; stroke-dashoffset: 0; stroke-linejoin: miter; stroke-miterlimit: 4; fill: rgb(0,0,0); fill-rule: nonzero; opacity: 1;" vector-effect="non-scaling-stroke"  transform=" translate(-6860, -5450)" d="M 6302 5453 L 6305 4555 L 6856 4552 L 7407 4550 L 7414 4611 C 7417 4645 7420 4690 7420 4711 L 7420 4750 L 6988 4752 L 6555 4755 L 6552 5058 L 6550 5360 L 6900 5360 L 7250 5360 L 7250 5450 C 7250 5515 7247 5540 7238 5540 C 7231 5540 7074 5541 6890 5543 L 6555 5545 L 6552 5848 L 6550 6150 L 6980 6150 L 7410 6150 L 7410 6250 L 7410 6350 L 6855 6350 L 6300 6350 L 6302 5453 z" stroke-linecap="round" />
</g>
		<g transform="matrix(0.13 0 0 -0.13 384.97 194.67)" id="liKuf2piX5KikSN5pepav"  >
<path style="stroke: none; stroke-width: 1; stroke-dasharray: none; stroke-linecap: butt; stroke-dashoffset: 0; stroke-linejoin: miter; stroke-miterlimit: 4; fill: rgb(0,0,0); fill-rule: nonzero; opacity: 1;" vector-effect="non-scaling-stroke"  transform=" translate(-8887.28, -4540)" d="M 7903 5467 C 7709 4982 7548 4577 7544 4568 C 7538 4552 7547 4550 7645 4550 C 7748 4550 7752 4551 7779 4578 C 7797 4596 7830 4669 7879 4800 C 7920 4907 7959 5007 7967 5023 L 7981 5050 L 8381 5050 L 8781 5050 L 8799 5008 C 8809 4984 8848 4882 8886 4781 C 8927 4671 8965 4588 8979 4574 C 9000 4553 9012 4550 9076 4550 L 9150 4550 L 9150 3640 L 9150 2730 L 9265 2730 L 9380 2730 L 9380 3030 L 9380 3330 L 9434 3330 C 9471 3330 9494 3325 9508 3313 C 9519 3303 9577 3234 9636 3160 C 9898 2832 9954 2764 9972 2748 C 9989 2733 10012 2730 10112 2730 L 10232 2730 L 10198 2773 C 10019 3002 9693 3408 9680 3417 C 9667 3428 9668 3432 9690 3452 C 9704 3465 9776 3540 9850 3620 C 9924 3700 10012 3794 10046 3830 C 10144 3934 10190 3987 10190 3994 C 10190 4005 9980 4000 9957 3989 C 9932 3976 9926 3969 9751 3780 C 9682 3706 9592 3610 9551 3568 C 9478 3492 9475 3490 9428 3490 L 9380 3490 L 9378 4023 L 9375 4555 L 9299 4558 L 9222 4561 L 9198 4618 C 9185 4649 9023 5052 8839 5512 L 8505 6350 L 8380 6350 L 8255 6350 L 7903 5467 z M 8429 5964 C 8451 5904 8521 5720 8585 5555 C 8650 5390 8705 5247 8707 5238 C 8712 5221 8692 5220 8381 5220 C 8199 5220 8050 5224 8050 5229 C 8050 5233 8118 5412 8201 5626 C 8284 5840 8357 6034 8363 6058 C 8376 6108 8377 6108 8429 5964 z" stroke-linecap="round" />
</g>
		<g transform="matrix(0.13 0 0 -0.13 -413.49 -27.71)" id="lSTXdRXOkNi05dH1KhFKq"  >
<path style="stroke: none; stroke-width: 1; stroke-dasharray: none; stroke-linecap: butt; stroke-dashoffset: 0; stroke-linejoin: miter; stroke-miterlimit: 4; fill: rgb(0,0,0); fill-rule: nonzero; opacity: 1;" vector-effect="non-scaling-stroke"  transform=" translate(-2898.85, -6207.81)" d="M 2696 6323 C 2692 6314 2693 6303 2697 6299 C 2701 6295 2755 6282 2815 6270 C 2876 6259 2934 6246 2945 6242 C 2956 6238 2900 6233 2820 6230 L 2675 6225 L 2672 6188 C 2670 6167 2670 6150 2672 6150 C 2674 6150 2767 6132 2879 6110 C 2990 6088 3086 6073 3091 6076 C 3096 6079 3100 6090 3100 6100 C 3100 6122 3108 6119 2925 6156 C 2854 6170 2794 6183 2792 6184 C 2789 6188 2990 6200 3057 6200 C 3106 6200 3111 6202 3121 6226 C 3126 6241 3129 6255 3126 6257 C 3121 6263 2741 6340 2719 6340 C 2710 6340 2699 6332 2696 6323 z" stroke-linecap="round" />
</g>
		<g transform="matrix(0.13 0 0 -0.13 -419.87 14.27)" id="Mka7_AWZXU5tSy-PeBdFP"  >
<path style="stroke: none; stroke-width: 1; stroke-dasharray: none; stroke-linecap: butt; stroke-dashoffset: 0; stroke-linejoin: miter; stroke-miterlimit: 4; fill: rgb(0,0,0); fill-rule: nonzero; opacity: 1;" vector-effect="non-scaling-stroke"  transform=" translate(-2851, -5893)" d="M 2630 5911 L 2630 5883 L 2778 5871 C 2859 5865 2958 5857 2998 5853 L 3072 5847 L 3068 5876 L 3065 5905 L 2935 5916 C 2864 5922 2766 5930 2718 5933 L 2630 5939 L 2630 5911 z" stroke-linecap="round" />
</g>
		<g transform="matrix(0.13 0 0 -0.13 -420.64 53.73)" id="cQeJDg1U4RqDPge732IpB"  >
<path style="stroke: none; stroke-width: 1; stroke-dasharray: none; stroke-linecap: butt; stroke-dashoffset: 0; stroke-linejoin: miter; stroke-miterlimit: 4; fill: rgb(0,0,0); fill-rule: nonzero; opacity: 1;" vector-effect="non-scaling-stroke"  transform=" translate(-2845.22, -5597.04)" d="M 2950 5664 C 2893 5640 2840 5620 2834 5620 C 2827 5620 2782 5634 2733 5650 C 2624 5687 2618 5687 2622 5653 C 2625 5628 2633 5623 2725 5595 C 2838 5560 2833 5550 2703 5550 L 2630 5550 L 2630 5522 L 2630 5494 L 2758 5498 C 2828 5500 2926 5505 2975 5508 C 3058 5515 3065 5517 3068 5538 C 3072 5563 3075 5563 2943 5560 C 2892 5559 2850 5560 2850 5563 C 2850 5565 2895 5584 2951 5605 C 3053 5643 3064 5652 3058 5689 C 3055 5707 3049 5706 2950 5664 z" stroke-linecap="round" />
</g>
		<g transform="matrix(0.13 0 0 -0.13 -414.29 98.03)" id="dSEh46G72Grr-rkblSVcH"  >
<path style="stroke: none; stroke-width: 1; stroke-dasharray: none; stroke-linecap: butt; stroke-dashoffset: 0; stroke-linejoin: miter; stroke-miterlimit: 4; fill: rgb(0,0,0); fill-rule: nonzero; opacity: 1;" vector-effect="non-scaling-stroke"  transform=" translate(-2892.85, -5264.78)" d="M 2865 5305 C 2666 5232 2665 5232 2668 5204 C 2674 5145 2669 5147 2813 5154 C 3105 5168 3121 5170 3118 5194 C 3115 5212 3107 5216 3055 5220 C 2997 5225 2996 5226 2989 5258 C 2983 5290 2983 5290 3036 5306 C 3067 5315 3090 5327 3090 5335 C 3090 5354 3079 5380 3071 5379 C 3068 5378 2975 5345 2865 5305 z M 2938 5238 C 2941 5213 2941 5213 2843 5207 C 2789 5204 2744 5203 2742 5205 C 2737 5210 2913 5269 2925 5266 C 2931 5265 2936 5252 2938 5238 z" stroke-linecap="round" />
</g>
		<g transform="matrix(0.13 0 0 -0.13 -400.94 153.41)" id="FNLzrTDQQVvr8hyY1cyx-"  >
<path style="stroke: none; stroke-width: 1; stroke-dasharray: none; stroke-linecap: butt; stroke-dashoffset: 0; stroke-linejoin: miter; stroke-miterlimit: 4; fill: rgb(0,0,0); fill-rule: nonzero; opacity: 1;" vector-effect="non-scaling-stroke"  transform=" translate(-2992.97, -4849.43)" d="M 3030 5004 C 2967 4979 2884 4947 2845 4933 C 2740 4895 2739 4895 2752 4860 C 2764 4823 2765 4823 2931 4856 C 3003 4870 3064 4880 3065 4878 C 3067 4876 3010 4840 2939 4797 C 2807 4717 2796 4704 2823 4665 C 2836 4648 2847 4651 3028 4719 C 3133 4758 3224 4790 3230 4790 C 3241 4790 3243 4801 3234 4824 C 3225 4847 3218 4845 3080 4795 C 3012 4770 2954 4750 2951 4750 C 2941 4750 3030 4808 3118 4858 C 3254 4936 3221 4951 3005 4909 C 2950 4899 2901 4890 2895 4891 C 2882 4891 2959 4923 3075 4965 C 3148 4992 3164 5002 3162 5017 C 3160 5027 3155 5038 3152 5042 C 3148 5046 3093 5028 3030 5004 z" stroke-linecap="round" />
</g>
		<g transform="matrix(0.13 0 0 -0.13 -56.77 316)" id="NVE3nWqTFaoh5NqLhWuqH"  >
<path style="stroke: none; stroke-width: 1; stroke-dasharray: none; stroke-linecap: butt; stroke-dashoffset: 0; stroke-linejoin: miter; stroke-miterlimit: 4; fill: rgb(0,0,0); fill-rule: nonzero; opacity: 1;" vector-effect="non-scaling-stroke"  transform=" translate(-5574.21, -3630)" d="M 4940 3630 L 4940 2730 L 5323 2730 C 5744 2730 5779 2734 5916 2791 C 5979 2817 6007 2837 6065 2894 C 6150 2979 6186 3049 6202 3159 C 6224 3306 6189 3429 6104 3515 C 6057 3561 5942 3625 5884 3636 C 5865 3639 5847 3646 5844 3651 C 5842 3656 5869 3674 5905 3692 C 6084 3779 6174 3953 6141 4148 C 6120 4278 6054 4374 5945 4435 C 5803 4515 5696 4530 5273 4530 L 4940 4530 L 4940 3630 z M 5715 4316 C 5823 4276 5878 4215 5900 4109 C 5927 3983 5881 3856 5786 3792 C 5698 3733 5651 3725 5405 3725 L 5185 3725 L 5182 4033 L 5180 4342 L 5422 4338 C 5626 4335 5673 4331 5715 4316 z M 5718 3535 C 5799 3516 5848 3491 5893 3443 C 5963 3371 5988 3246 5955 3136 C 5918 3014 5831 2947 5675 2921 C 5631 2913 5527 2910 5395 2912 L 5185 2915 L 5182 3220 C 5181 3388 5182 3530 5185 3537 C 5192 3557 5634 3555 5718 3535 z" stroke-linecap="round" />
</g>
		<g transform="matrix(0.13 0 0 -0.13 120.03 351.33)" id="PQEHCJaO2jIcX61kw_Sae"  >
<path style="stroke: none; stroke-width: 1; stroke-dasharray: none; stroke-linecap: butt; stroke-dashoffset: 0; stroke-linejoin: miter; stroke-miterlimit: 4; fill: rgb(0,0,0); fill-rule: nonzero; opacity: 1;" vector-effect="non-scaling-stroke"  transform=" translate(-6900.26, -3365.06)" d="M 6855 4009 C 6725 3990 6594 3934 6511 3863 C 6464 3823 6462 3810 6492 3767 C 6539 3697 6569 3694 6654 3749 C 6755 3815 6805 3833 6901 3838 C 6954 3841 7002 3838 7025 3830 C 7073 3814 7126 3767 7151 3718 C 7172 3678 7198 3485 7187 3456 C 7182 3444 7166 3440 7113 3440 C 7027 3440 6848 3416 6767 3394 C 6674 3369 6551 3308 6499 3262 C 6470 3236 6443 3199 6425 3159 C 6401 3104 6398 3088 6402 3020 C 6413 2833 6532 2724 6737 2712 C 6880 2704 7005 2745 7128 2842 C 7162 2869 7195 2888 7200 2885 C 7205 2882 7212 2858 7216 2832 C 7223 2782 7236 2750 7254 2738 C 7260 2734 7295 2730 7333 2730 L 7400 2730 L 7400 3174 C 7400 3434 7396 3640 7390 3671 C 7366 3798 7284 3912 7180 3965 C 7126 3992 7002 4021 6947 4019 C 6929 4018 6888 4014 6855 4009 z M 7190 3171 L 7190 3042 L 7134 2991 C 7029 2895 6895 2853 6756 2874 C 6644 2891 6580 3018 6629 3126 C 6669 3214 6774 3260 7010 3294 C 7024 3296 7070 3298 7113 3299 L 7190 3300 L 7190 3171 z" stroke-linecap="round" />
</g>
		<g transform="matrix(0.13 0 0 -0.13 304 350.15)" id="aShhyqmTOeAJ7v-GKbwPA"  >
<path style="stroke: none; stroke-width: 1; stroke-dasharray: none; stroke-linecap: butt; stroke-dashoffset: 0; stroke-linejoin: miter; stroke-miterlimit: 4; fill: rgb(0,0,0); fill-rule: nonzero; opacity: 1;" vector-effect="non-scaling-stroke"  transform=" translate(-8280, -3373.88)" d="M 8284 4005 C 8190 3988 8095 3941 8021 3874 C 7988 3844 7959 3823 7957 3827 C 7954 3832 7949 3862 7945 3895 C 7934 3991 7924 4000 7830 4000 L 7750 4000 L 7750 3365 L 7750 2730 L 7860 2730 L 7970 2730 L 7970 3199 L 7970 3668 L 8028 3719 C 8059 3747 8112 3784 8145 3802 C 8202 3833 8210 3835 8310 3835 C 8402 3835 8420 3832 8455 3812 C 8508 3780 8540 3739 8562 3672 C 8578 3622 8580 3576 8580 3173 L 8580 2730 L 8695 2730 L 8810 2730 L 8810 3154 C 8810 3486 8807 3595 8795 3655 C 8757 3856 8652 3971 8476 4005 C 8386 4022 8378 4022 8284 4005 z" stroke-linecap="round" />
</g>
</g>
</g>
</svg>