<?xml version="1.0" standalone="no"?>
<!DOCTYPE svg PUBLIC "-//W3C//DTD SVG 20010904//EN"
 "http://www.w3.org/TR/2001/REC-SVG-20010904/DTD/svg10.dtd">
<svg version="1.0" xmlns="http://www.w3.org/2000/svg"
 width="1200.000000pt" height="1200.000000pt" viewBox="0 0 1200.000000 1200.000000"
 preserveAspectRatio="xMidYMid meet">

<g transform="translate(0.000000,1200.000000) scale(0.100000,-0.100000)"
fill="#000000" stroke="none">
<path d="M5395 8397 c-5 -16 -75 -405 -75 -418 0 -6 12 -9 28 -7 24 3 28 8 36
56 l9 53 36 -3 c36 -3 36 -3 41 -58 5 -51 7 -55 33 -58 15 -2 27 0 27 5 0 21
-50 426 -52 428 -2 1 -20 5 -41 8 -25 4 -39 2 -42 -6z m58 -199 l6 -68 -30 0
c-27 0 -30 3 -26 23 3 12 11 58 18 102 12 72 14 77 20 45 4 -19 9 -65 12 -102z"/>
<path d="M5067 8393 c-4 -3 -8 -40 -8 -82 -1 -42 -4 -110 -8 -151 l-6 -75 -48
142 c-27 79 -53 145 -58 149 -5 3 -23 3 -39 -1 -24 -5 -29 -11 -25 -28 3 -12
16 -109 29 -215 13 -107 26 -195 28 -197 2 -3 14 -2 26 2 19 4 22 11 18 32
-11 56 -28 243 -23 248 3 3 25 -56 48 -131 63 -202 89 -179 89 79 0 133 22 63
46 -147 5 -48 10 -58 25 -58 11 0 22 7 25 14 3 8 -4 84 -16 168 -27 182 -27
184 -29 226 -1 29 -4 32 -34 32 -19 0 -37 -3 -40 -7z"/>
<path d="M5706 8165 c-21 -113 -36 -212 -32 -220 6 -16 32 -20 40 -6 3 5 13
42 21 82 22 106 26 122 30 118 2 -3 9 -45 16 -94 15 -118 22 -135 54 -135 20
0 25 4 21 18 -2 9 -12 62 -21 117 l-17 100 30 50 c17 28 43 70 57 94 22 35 25
45 14 52 -31 19 -46 6 -94 -81 -28 -49 -53 -90 -56 -90 -3 0 2 42 12 93 9 50
15 95 12 100 -2 4 -14 7 -27 7 -21 0 -24 -10 -60 -205z"/>
<path d="M6125 8268 c-79 -237 -125 -392 -118 -398 14 -13 124 -51 133 -45 4
2 10 14 13 24 4 16 -4 23 -39 37 -24 9 -44 19 -44 21 0 12 31 110 39 122 8 12
14 13 37 2 25 -11 30 -10 41 5 19 26 17 31 -22 44 -26 9 -34 16 -31 28 32 112
27 104 60 97 57 -13 71 -11 74 11 3 18 -5 24 -45 37 -91 29 -93 29 -98 15z"/>
<path d="M4402 8239 c-25 -9 -24 -21 3 -157 15 -73 15 -73 -54 31 -42 63 -57
78 -74 75 -12 -2 -22 -10 -21 -18 1 -9 36 -64 79 -124 43 -59 90 -137 105
-172 32 -77 33 -78 59 -69 27 8 26 20 -3 86 -15 36 -29 101 -41 194 -10 77
-20 145 -24 151 -4 8 -14 9 -29 3z"/>
<path d="M4013 8062 c-35 -20 -63 -39 -63 -42 0 -4 26 -51 59 -106 32 -54 80
-136 106 -181 26 -46 50 -83 52 -83 14 0 123 67 123 75 0 6 -5 17 -10 25 -8
13 -15 12 -49 -6 -46 -25 -52 -22 -90 51 -27 51 -26 59 4 73 27 12 32 31 14
49 -9 9 -19 8 -42 -3 -33 -18 -34 -17 -70 46 l-26 45 39 23 c44 25 46 30 28
54 -12 15 -19 13 -75 -20z"/>
<path d="M6660 7993 c-39 -35 -51 -86 -45 -183 6 -91 -9 -143 -43 -148 -28 -4
-39 21 -25 58 8 22 7 29 -8 38 -27 17 -34 15 -47 -13 -37 -82 34 -166 108
-129 55 28 64 55 70 198 4 108 8 131 23 140 12 8 22 8 35 0 17 -12 19 -26 8
-54 -4 -9 2 -20 15 -28 18 -11 23 -11 35 5 8 10 13 35 11 58 -2 32 -8 43 -36
62 -44 30 -64 29 -101 -4z"/>
<path d="M3743 7893 c-23 -9 -14 -28 66 -128 43 -55 77 -102 75 -104 -2 -2
-51 36 -109 83 -105 87 -111 89 -148 58 -16 -14 -15 -17 10 -51 101 -135 237
-301 247 -301 7 0 17 5 23 11 8 8 -15 45 -87 138 -54 69 -96 128 -95 130 2 1
41 -28 87 -66 120 -99 165 -133 175 -133 6 0 17 8 26 18 15 17 12 24 -54 107
-39 50 -98 125 -130 168 -33 42 -63 77 -67 76 -4 0 -13 -3 -19 -6z"/>
<path d="M6980 7822 c0 -8 -139 -185 -220 -282 -16 -19 -30 -40 -30 -46 0 -6
25 -31 55 -54 52 -40 55 -41 72 -25 16 17 15 19 -20 50 l-38 33 40 50 c22 28
44 53 49 56 5 3 22 -4 37 -16 27 -21 28 -21 41 -3 12 17 11 22 -12 46 l-26 27
33 46 c19 25 38 45 43 46 4 0 21 -11 38 -25 36 -30 44 -31 58 -6 8 17 2 26
-48 65 -57 46 -72 54 -72 38z"/>
<path d="M3416 7605 c-8 -8 -19 -15 -24 -15 -16 0 -34 -55 -27 -83 8 -29 228
-240 263 -251 50 -16 112 36 112 95 0 13 -31 53 -82 106 -147 151 -204 186
-242 148z m161 -147 c107 -106 125 -139 75 -146 -16 -3 -39 13 -85 60 -35 35
-83 80 -105 101 -39 35 -52 64 -35 80 20 21 54 -1 150 -95z"/>
<path d="M7112 7461 c-183 -172 -176 -164 -154 -184 16 -15 25 -8 135 95 64
60 117 107 117 103 0 -4 -38 -65 -85 -134 -47 -70 -85 -132 -85 -138 0 -5 8
-17 18 -26 17 -16 27 -8 175 129 140 131 155 148 144 165 -6 10 -14 19 -17 19
-3 0 -49 -40 -102 -90 -53 -49 -99 -90 -102 -90 -2 0 31 52 75 116 l80 117
-22 23 c-13 13 -26 24 -31 24 -5 0 -71 -58 -146 -129z"/>
<path d="M3168 7328 l-22 -32 107 -101 c59 -56 107 -104 107 -108 0 -3 -61 21
-136 54 -74 32 -138 59 -142 59 -4 0 -16 -13 -25 -30 l-18 -29 93 -62 c51 -34
129 -88 174 -121 44 -32 86 -58 92 -58 6 0 16 8 21 19 9 16 -4 28 -95 92 -58
41 -113 80 -122 87 -23 17 62 -16 172 -67 85 -39 106 -43 106 -18 0 6 -48 61
-107 121 -85 85 -98 102 -63 79 25 -16 72 -47 105 -69 33 -21 69 -47 79 -56
11 -10 22 -18 25 -18 12 0 32 43 24 50 -4 4 -85 59 -180 123 l-172 116 -23
-31z"/>
<path d="M7467 7255 c-41 -21 -62 -50 -98 -135 -44 -100 -65 -130 -94 -130
-35 0 -44 38 -15 62 21 17 22 21 10 43 -10 19 -17 22 -31 14 -50 -26 -64 -97
-28 -143 28 -36 85 -36 127 -1 30 25 43 48 97 173 29 66 60 87 90 62 20 -17
19 -26 -6 -49 -18 -16 -19 -22 -7 -40 16 -27 20 -26 52 5 33 33 34 79 3 116
-28 34 -64 43 -100 23z"/>
<path d="M7638 6927 c-31 -17 -110 -59 -177 -92 -66 -33 -121 -66 -121 -72 0
-21 54 -123 65 -123 5 0 16 4 24 9 13 8 12 15 -4 50 -10 23 -16 44 -13 47 3 3
32 18 64 34 l59 29 15 -30 c10 -21 20 -29 35 -27 20 3 24 21 10 63 -5 16 3 25
44 48 27 15 52 27 55 27 3 0 15 -18 26 -41 15 -28 26 -39 36 -35 9 3 18 6 20
6 23 0 -41 133 -66 137 -8 2 -40 -12 -72 -30z"/>
<path d="M2805 6665 c-34 -33 -34 -93 -1 -124 32 -30 278 -121 327 -121 29 0
42 6 58 26 27 34 28 97 2 123 -22 22 -192 85 -201 74 -4 -4 -12 -23 -18 -41
-10 -30 -9 -34 11 -42 15 -6 25 -4 33 6 10 13 21 11 75 -9 53 -20 64 -28 64
-47 0 -47 -23 -45 -175 12 -124 47 -145 58 -148 78 -5 28 14 40 49 33 22 -4
28 -1 34 17 14 46 -69 57 -110 15z"/>
<path d="M5280 6354 c-202 -43 -362 -196 -401 -382 -7 -34 -9 -93 -6 -147 5
-75 11 -100 42 -161 66 -134 154 -192 436 -285 208 -69 245 -85 304 -140 60
-55 79 -109 73 -201 -8 -126 -67 -211 -183 -265 -56 -26 -68 -28 -185 -28
-151 1 -191 14 -336 111 -123 82 -139 79 -204 -41 l-25 -47 51 -46 c68 -63
162 -117 259 -149 73 -25 93 -27 245 -28 186 0 242 13 356 81 75 45 116 84
165 159 61 92 83 177 84 315 0 109 -2 119 -32 183 -64 134 -168 204 -452 301
-196 67 -269 105 -321 164 -44 50 -54 86 -48 172 12 164 186 272 392 242 85
-13 175 -49 246 -101 55 -40 82 -40 113 2 36 47 69 116 61 128 -13 21 -156
108 -212 129 -129 49 -292 62 -422 34z"/>
<path d="M6302 5453 l3 -898 551 -3 551 -2 7 61 c3 34 6 79 6 100 l0 39 -432
2 -433 3 -3 303 -2 302 350 0 350 0 0 90 c0 65 -3 90 -12 90 -7 0 -164 1 -348
3 l-335 2 -3 303 -2 302 430 0 430 0 0 100 0 100 -555 0 -555 0 2 -897z"/>
<path d="M7903 5467 c-194 -485 -355 -890 -359 -899 -6 -16 3 -18 101 -18 103
0 107 1 134 28 18 18 51 91 100 222 41 107 80 207 88 223 l14 27 400 0 400 0
18 -42 c10 -24 49 -126 87 -227 41 -110 79 -193 93 -207 21 -21 33 -24 97 -24
l74 0 0 -910 0 -910 115 0 115 0 0 300 0 300 54 0 c37 0 60 -5 74 -17 11 -10
69 -79 128 -153 262 -328 318 -396 336 -412 17 -15 40 -18 140 -18 l120 0 -34
43 c-179 229 -505 635 -518 644 -13 11 -12 15 10 35 14 13 86 88 160 168 74
80 162 174 196 210 98 104 144 157 144 164 0 11 -210 6 -233 -5 -25 -13 -31
-20 -206 -209 -69 -74 -159 -170 -200 -212 -73 -76 -76 -78 -123 -78 l-48 0
-2 533 -3 532 -76 3 -77 3 -24 57 c-13 31 -175 434 -359 894 l-334 838 -125 0
-125 0 -352 -883z m526 497 c22 -60 92 -244 156 -409 65 -165 120 -308 122
-317 5 -17 -15 -18 -326 -18 -182 0 -331 4 -331 9 0 4 68 183 151 397 83 214
156 408 162 432 13 50 14 50 66 -94z"/>
<path d="M2696 6323 c-4 -9 -3 -20 1 -24 4 -4 58 -17 118 -29 61 -11 119 -24
130 -28 11 -4 -45 -9 -125 -12 l-145 -5 -3 -37 c-2 -21 -2 -38 0 -38 2 0 95
-18 207 -40 111 -22 207 -37 212 -34 5 3 9 14 9 24 0 22 8 19 -175 56 -71 14
-131 27 -133 28 -3 4 198 16 265 16 49 0 54 2 64 26 5 15 8 29 5 31 -5 6 -385
83 -407 83 -9 0 -20 -8 -23 -17z"/>
<path d="M2630 5911 l0 -28 148 -12 c81 -6 180 -14 220 -18 l74 -6 -4 29 -3
29 -130 11 c-71 6 -169 14 -217 17 l-88 6 0 -28z"/>
<path d="M2950 5664 c-57 -24 -110 -44 -116 -44 -7 0 -52 14 -101 30 -109 37
-115 37 -111 3 3 -25 11 -30 103 -58 113 -35 108 -45 -22 -45 l-73 0 0 -28 0
-28 128 4 c70 2 168 7 217 10 83 7 90 9 93 30 4 25 7 25 -125 22 -51 -1 -93 0
-93 3 0 2 45 21 101 42 102 38 113 47 107 84 -3 18 -9 17 -108 -25z"/>
<path d="M2865 5305 c-199 -73 -200 -73 -197 -101 6 -59 1 -57 145 -50 292 14
308 16 305 40 -3 18 -11 22 -63 26 -58 5 -59 6 -66 38 -6 32 -6 32 47 48 31 9
54 21 54 29 0 19 -11 45 -19 44 -3 -1 -96 -34 -206 -74z m73 -67 c3 -25 3 -25
-95 -31 -54 -3 -99 -4 -101 -2 -5 5 171 64 183 61 6 -1 11 -14 13 -28z"/>
<path d="M3030 5004 c-63 -25 -146 -57 -185 -71 -105 -38 -106 -38 -93 -73 12
-37 13 -37 179 -4 72 14 133 24 134 22 2 -2 -55 -38 -126 -81 -132 -80 -143
-93 -116 -132 13 -17 24 -14 205 54 105 39 196 71 202 71 11 0 13 11 4 34 -9
23 -16 21 -154 -29 -68 -25 -126 -45 -129 -45 -10 0 79 58 167 108 136 78 103
93 -113 51 -55 -10 -104 -19 -110 -18 -13 0 64 32 180 74 73 27 89 37 87 52
-2 10 -7 21 -10 25 -4 4 -59 -14 -122 -38z"/>
<path d="M4940 3630 l0 -900 383 0 c421 0 456 4 593 61 63 26 91 46 149 103
85 85 121 155 137 265 22 147 -13 270 -98 356 -47 46 -162 110 -220 121 -19 3
-37 10 -40 15 -2 5 25 23 61 41 179 87 269 261 236 456 -21 130 -87 226 -196
287 -142 80 -249 95 -672 95 l-333 0 0 -900z m775 686 c108 -40 163 -101 185
-207 27 -126 -19 -253 -114 -317 -88 -59 -135 -67 -381 -67 l-220 0 -3 308 -2
309 242 -4 c204 -3 251 -7 293 -22z m3 -781 c81 -19 130 -44 175 -92 70 -72
95 -197 62 -307 -37 -122 -124 -189 -280 -215 -44 -8 -148 -11 -280 -9 l-210
3 -3 305 c-1 168 0 310 3 317 7 20 449 18 533 -2z"/>
<path d="M6855 4009 c-130 -19 -261 -75 -344 -146 -47 -40 -49 -53 -19 -96 47
-70 77 -73 162 -18 101 66 151 84 247 89 53 3 101 0 124 -8 48 -16 101 -63
126 -112 21 -40 47 -233 36 -262 -5 -12 -21 -16 -74 -16 -86 0 -265 -24 -346
-46 -93 -25 -216 -86 -268 -132 -29 -26 -56 -63 -74 -103 -24 -55 -27 -71 -23
-139 11 -187 130 -296 335 -308 143 -8 268 33 391 130 34 27 67 46 72 43 5 -3
12 -27 16 -53 7 -50 20 -82 38 -94 6 -4 41 -8 79 -8 l67 0 0 444 c0 260 -4
466 -10 497 -24 127 -106 241 -210 294 -54 27 -178 56 -233 54 -18 -1 -59 -5
-92 -10z m335 -838 l0 -129 -56 -51 c-105 -96 -239 -138 -378 -117 -112 17
-176 144 -127 252 40 88 145 134 381 168 14 2 60 4 103 5 l77 1 0 -129z"/>
<path d="M8284 4005 c-94 -17 -189 -64 -263 -131 -33 -30 -62 -51 -64 -47 -3
5 -8 35 -12 68 -11 96 -21 105 -115 105 l-80 0 0 -635 0 -635 110 0 110 0 0
469 0 469 58 51 c31 28 84 65 117 83 57 31 65 33 165 33 92 0 110 -3 145 -23
53 -32 85 -73 107 -140 16 -50 18 -96 18 -499 l0 -443 115 0 115 0 0 424 c0
332 -3 441 -15 501 -38 201 -143 316 -319 350 -90 17 -98 17 -192 0z"/>
</g>
</svg>
